# xmcd CD database file
#
# Track frame offsets:
#	182
#	16707
#	38465
#	59122
#	75750
#	85842
#	98447
#	121880
#	139077
#	156800
#
# Disc length: 2322 seconds
#
# Revision: 2
# Processed by: cddbd v1.5.2PL0 Copyright (c) Steve Scherf et al.
# Submitted via: CDex 1.70beta2
#
DISCID=6509100a
DTITLE=Memphis Slim - Unknown CD for MusicBrainz and FreeDB
DYEAR=1960
DGENRE=Blues
TTITLE0=Mean Mistreatin' Mama
TTITLE1=Soon One Morning
TTITLE2=Steady Rolling Blues
TTITLE3=Celeste's Boogie
TTITLE4=Big Legged Woman
TTITLE5=Rock Me Baby
TTITLE6=Goin' Down Slow
TTITLE7=Sweet Root Man
TTITLE8=Mr. Freddie Boogie
TTITLE9=Three Women Blues
EXTD=Bluesville OBCCD 523 2 (BV-1075) YEAR: 1960
EXTT0=
EXTT1=
EXTT2=
EXTT3=
EXTT4=
EXTT5=
EXTT6=
EXTT7=
EXTT8=
EXTT9=
PLAYORDER=
